<svg xmlns="http://www.w3.org/2000/svg" width="1240" height="1240"><path d="M171.513 309.979c-.624 1.01-53.538 211.34-53.843 214.021-.147 1.294 2.907 1.5 22.206 1.5h22.377l16.854-67.5c9.27-37.125 17.101-68.531 17.403-69.791.701-2.928 2.152-2.032 3.362 2.077 1.164 3.952 5.95 17.484 7.149 20.214.483 1.1 1.546 4.025 2.363 6.5.816 2.475 2.889 8.325 4.607 13 6.087 16.568 7.164 19.56 8.998 25 1.019 3.025 3.279 9.325 5.022 14 1.742 4.675 3.524 9.625 3.961 11 .436 1.375 1.499 4.3 2.362 6.5.864 2.2 4.096 11.172 7.183 19.937 3.087 8.765 6.054 16.761 6.593 17.769.912 1.704 2.527 1.813 23.18 1.563l22.2-.269 26.767-106.998c14.721-58.849 26.55-107.561 26.286-108.25-.691-1.801-41.852-1.802-43.311-.002-.557.688-8.521 31.4-17.698 68.25-19.352 77.715-17.464 70.5-18.445 70.5-.426 0-3.118-6.637-5.981-14.75s-6.084-17.113-7.157-20c-4.02-10.816-5.891-15.994-8.946-24.75-1.726-4.95-3.536-9.9-4.022-11-.485-1.1-1.552-4.025-2.37-6.5-2.342-7.087-6.671-19.303-7.617-21.5-.474-1.1-2.275-6.05-4.001-11-6.751-19.351-9.97-27.755-11.207-29.25-1.29-1.561-43.319-1.818-44.275-.271m602.901-.214c-.597.404-4.143 5.685-7.88 11.735-10.775 17.443-14.529 23.485-19.57 31.5-2.594 4.125-12.252 19.65-21.463 34.5-9.21 14.85-18.436 29.7-20.502 33-2.065 3.3-11.865 19.05-21.777 35s-23.642 38-30.512 49c-6.869 11-12.17 20.346-11.78 20.769.389.423 11.017.648 23.616.5l22.907-.269 11.695-20c6.432-11 12.596-21.012 13.698-22.25l2.003-2.25h37.516c21.041 0 37.76.394 38.071.896.305.493 1.234 8.706 2.065 18.25 1.266 14.54 2.213 24.448 2.448 25.604.028.138 10.626.25 23.551.25H842v-3.668c0-2.018-.418-6.405-.93-9.75-1.117-7.305-1.426-9.756-9.103-72.082-12.145-98.611-16.124-129.945-16.599-130.714-.614-.993-39.487-1.013-40.954-.021M425 363.502c-29.85 6.036-55.575 27.074-70.306 57.498C347.352 436.165 342 457.916 342 472.589c0 26.851 15.381 46.894 41.5 54.076 7.696 2.117 33.473 2.411 41.5.474 15.861-3.826 30.935-10.946 41.531-19.614 4.05-3.314 7.586-6.554 7.857-7.201.552-1.318-13.381-23.284-14.785-23.308-.493-.009-2.767 1.517-5.053 3.39-13.651 11.185-34.764 16.389-48.99 12.074-8.896-2.699-14.401-7.765-17.533-16.138-2.298-6.142-2.782-16.334-.777-16.355.688-.008 23.75-.12 51.25-.25l50-.237 2.817-11c6.604-25.788 7.307-41.122 2.521-55-4.36-12.64-15.483-23.737-27.965-27.898-11.216-3.739-28.4-4.622-40.873-2.1m543.912-.057c-7.054 1.945-15.772 7.002-22.662 13.144-3.437 3.064-6.241 4.972-6.229 4.241.011-.732.638-4.255 1.392-7.83.754-3.575 1.168-6.837.92-7.25-.248-.413-9.407-.75-20.353-.75h-19.903l-1.152 4.25C899.332 375.128 862 525.058 862 525.579c0 .231 9.657.421 21.46.421h21.46l1.068-3.75c.587-2.062 6.609-25.93 13.382-53.039 11.901-47.638 12.428-49.408 15.722-52.816 8.398-8.691 16.962-11.532 34.658-11.498 7.288.014 13.25-.227 13.25-.536 0-.308 1.162-4.903 2.582-10.211 3.735-13.959 7.418-28.498 7.418-29.279 0-2.751-15.88-3.691-24.088-1.426m88.588.037c-14.853 3.275-28.028 10.857-40.077 23.063-17.632 17.863-28.356 40.817-33.968 72.706-6.335 35.994 8.718 64.223 36.735 68.892 8.323 1.387 21.786.414 29.552-2.136 5.929-1.947 13.393-5.851 19.566-10.232 1.544-1.096 2.997-1.803 3.23-1.571.824.825-4.215 15.39-6.925 20.013-4 6.826-13.483 15.189-20.328 17.928-4.956 1.983-7.58 2.318-18.306 2.335-12.148.019-12.72-.078-19.185-3.261-4.328-2.13-8.304-5.104-11.342-8.484l-4.678-5.203-12.347 12.984c-6.79 7.141-12.364 13.582-12.387 14.314-.022.731 2.648 4.018 5.932 7.302 10.876 10.876 27.91 16.869 47.938 16.867 43.493-.005 78.53-22.992 91.207-59.84 1.956-5.685 40.883-160.807 40.883-162.916 0-1.795-37.33-1.788-38.729.007-.536.688-1.805 3.613-2.82 6.5-1.016 2.887-2.198 5.25-2.628 5.25-.43 0-2.573-1.943-4.762-4.318-9.29-10.078-28.264-14.235-46.561-10.2M528 366.939c0 1.086 5.4 18.289 12 38.227 6.6 19.938 12 36.984 12 37.88 0 1.477-8.056 11.417-52.041 64.208-7.677 9.215-13.959 17.203-13.959 17.75 0 .634 8.268.97 22.75.925l22.75-.07 10.622-13.18C564.493 484.92 571.098 477 571.878 477c.443 0 1.357 1.913 2.031 4.25.927 3.213 10.586 34.049 13.626 43.5.306.952 5.905 1.25 23.513 1.25h23.111l-.707-3.217c-.388-1.77-1.071-3.907-1.517-4.75-.447-.843-6.176-17.896-12.732-37.896l-11.92-36.364 22.542-27.136a26574.189 26574.189 0 0131.859-38.292c5.124-6.135 9.316-11.647 9.316-12.25 0-.761-6.818-1.095-22.34-1.095h-22.339l-16.453 20.25c-9.049 11.137-17.533 21.716-18.854 23.507-1.339 1.817-2.78 2.877-3.26 2.397-.473-.473-3.887-10.939-7.586-23.257l-6.726-22.397-22.721-.269c-22.053-.261-22.721-.21-22.721 1.708m243.424 14.34c-8.73 15.373-23.845 41.388-31.492 54.203-2.62 4.39-4.55 8.328-4.289 8.75.614.992 51.096 1.01 51.684.018.245-.413.054-5.25-.423-10.75a5681.307 5681.307 0 01-3.896-47.25c-1.142-14.673-1.811-19.262-2.803-19.221-.388.016-4.339 6.428-8.781 14.25m-347.525 17.096c-5.918 1.595-9.887 4.148-16.434 10.569C402.76 413.559 395 425.98 395 428.896c0 .78 8.522 1.104 29.025 1.104h29.025l.975-2.565c1.477-3.885 1.169-15.726-.513-19.753-3.644-8.721-16.636-12.804-29.613-9.307m643.324-.371c-10.678 2.249-22.655 12.652-29.391 25.527-4.487 8.576-9.301 24.245-10.797 35.14-2.297 16.735 2.429 28.78 12.965 33.043 3.025 1.223 7.438 2.238 9.807 2.255 9.795.07 21.435-4.446 27.76-10.771l4.062-4.063 8.264-33.188c4.94-19.843 8.025-34.138 7.671-35.549-.926-3.69-6.186-9.03-10.656-10.818-5.091-2.037-14.08-2.757-19.685-1.576" fill="undefined" fill-rule="evenodd"/></svg>